# xmcd
# 
# Track frame offsets:
#     150
#     14535
#     27655
#     41280
#     55065
#     68285
#     79900
#     92175
#     104350
#     115975
#     130040
#     143225
#     156150
#     171005
#     183365
#     196745
#     208615
#     222020
#     235505
#     249605
# 
# Disc length: 3523
# 
# Revision: 1
# Processed by: cddbd v1.5.2PL0 Copyright (c) Steve Scherf et al.
# Submitted via: BonkEnc v1.0.8
# 
DISCID=0a0dc114
DTITLE=The Carter Family - The Original Carter Family
DYEAR=2008
DGENRE=Country
TTITLE0=Wildwood Flowers
TTITLE1=Keep on the Sunny Side
TTITLE2=I'm Thinking Tonight of My Blue Eyes
TTITLE3=Foggy Mountain Top
TTITLE4=The Wabash Cannonball
TTITLE5=Jimmie Brown the Newsboy
TTITLE6=Worried Man Blues
TTITLE7=Lonesome Valley
TTITLE8=I Never Will Marry
TTITLE9=You Are My Flower
TTITLE10=Bury Me Beneath the Willow
TTITLE11=Little Log Cabin By the Sea
TTITLE12=Little Darling, Pal of Mine
TTITLE13=Anchored in Love
TTITLE14=John Hardy Was a Desperate Little Man
TTITLE15=River of Jordan
TTITLE16=Cannon Ball Blues
TTITLE17=Lonesome Pine Special
TTITLE18=Sweet Fern
TTITLE19=My Clinch Mountain Home
EXTD=
EXTT0=
EXTT1=
EXTT2=
EXTT3=
EXTT4=
EXTT5=
EXTT6=
EXTT7=
EXTT8=
EXTT9=
EXTT10=
EXTT11=
EXTT12=
EXTT13=
EXTT14=
EXTT15=
EXTT16=
EXTT17=
EXTT18=
EXTT19=
PLAYORDER=
